<svg width="350" height="48" viewBox="0 0 350 48" fill="none" xmlns="http://www.w3.org/2000/svg">
<path d="M49.8223 18.0521C49.6263 17.4357 49.2373 16.8978 48.7127 16.5191C48.1881 16.1404 47.5554 15.9405 46.9079 15.9493H35.1494C34.3566 15.9572 33.5809 15.7175 32.9311 15.2631C32.2812 14.8087 31.79 14.1623 31.5257 13.4147L27.9016 2.11253C27.6319 1.28829 27.0258 0.616371 26.2329 0.264148C25.4401 -0.0880494 24.5348 -0.0880494 23.7425 0.264148C22.9497 0.616346 22.343 1.28831 22.0734 2.11253L18.4493 13.2885C18.185 14.0356 17.6938 14.682 17.0439 15.1363C16.3941 15.5907 15.6185 15.8309 14.8256 15.8226H3.06708C2.19764 15.8221 1.36846 16.1915 0.786875 16.8379C0.205286 17.4843 -0.0747055 18.3474 0.017154 19.2119C0.10901 20.0769 0.563382 20.8618 1.26776 21.3723L10.7961 28.2905C11.4819 28.7748 11.9883 29.4723 12.2358 30.2749C12.4834 31.077 12.4583 31.9386 12.1646 32.725L8.51538 43.8249C8.25159 44.6496 8.34935 45.5475 8.78357 46.2966C9.21829 47.0457 9.94871 47.5757 10.7956 47.7569C11.6424 47.9377 12.5266 47.752 13.229 47.2455L22.7574 40.3273C23.4058 39.8577 24.1863 39.6048 24.9874 39.6048C25.7881 39.6048 26.5686 39.8577 27.2175 40.3273L36.7459 47.2455H36.7454C37.4483 47.752 38.3319 47.9377 39.1789 47.7569C40.0257 47.5756 40.7566 47.0456 41.1908 46.2966C41.625 45.5475 41.7228 44.6495 41.459 43.8249L37.8098 32.725C37.5588 31.9617 37.5559 31.1389 37.8019 30.3741C38.0475 29.6088 38.5294 28.9417 39.1783 28.4678L48.7066 21.5496C49.2514 21.1704 49.6557 20.6227 49.8575 19.99C50.0589 19.3578 50.0466 18.6771 49.8217 18.0522L49.8223 18.0521Z" fill="#FFC209"/>
<path d="M124.822 18.0521C124.626 17.4357 124.237 16.8978 123.713 16.5191C123.188 16.1404 122.555 15.9405 121.908 15.9493H110.149C109.357 15.9572 108.581 15.7175 107.931 15.2631C107.281 14.8087 106.79 14.1623 106.526 13.4147L102.902 2.11253C102.632 1.28829 102.026 0.616371 101.233 0.264148C100.44 -0.0880494 99.5348 -0.0880494 98.7425 0.264148C97.9497 0.616346 97.343 1.28831 97.0734 2.11253L93.4493 13.2885C93.185 14.0356 92.6938 14.682 92.0439 15.1363C91.3941 15.5907 90.6185 15.8309 89.8256 15.8226H78.0671C77.1976 15.8221 76.3685 16.1915 75.7869 16.8379C75.2053 17.4843 74.9253 18.3474 75.0172 19.2119C75.109 20.0769 75.5634 20.8618 76.2678 21.3723L85.7961 28.2905C86.4819 28.7748 86.9883 29.4723 87.2358 30.2749C87.4834 31.077 87.4583 31.9386 87.1646 32.725L83.5154 43.8249C83.2516 44.6496 83.3493 45.5475 83.7836 46.2966C84.2183 47.0457 84.9487 47.5757 85.7956 47.7569C86.6424 47.9377 87.5266 47.752 88.229 47.2455L97.7574 40.3273C98.4058 39.8577 99.1863 39.6048 99.9874 39.6048C100.788 39.6048 101.569 39.8577 102.217 40.3273L111.746 47.2455H111.745C112.448 47.752 113.332 47.9377 114.179 47.7569C115.026 47.5756 115.757 47.0456 116.191 46.2966C116.625 45.5475 116.723 44.6495 116.459 43.8249L112.81 32.725C112.559 31.9617 112.556 31.1389 112.802 30.3741C113.048 29.6088 113.529 28.9417 114.178 28.4678L123.707 21.5496C124.251 21.1704 124.656 20.6227 124.858 19.99C125.059 19.3578 125.047 18.6771 124.822 18.0522L124.822 18.0521Z" fill="#FFC209"/>
<path d="M199.822 18.0521C199.626 17.4357 199.237 16.8978 198.713 16.5191C198.188 16.1404 197.555 15.9405 196.908 15.9493H185.149C184.357 15.9572 183.581 15.7175 182.931 15.2631C182.281 14.8087 181.79 14.1623 181.526 13.4147L177.902 2.11253C177.632 1.28829 177.026 0.616371 176.233 0.264148C175.44 -0.0880494 174.535 -0.0880494 173.742 0.264148C172.95 0.616346 172.343 1.28831 172.073 2.11253L168.449 13.2885C168.185 14.0356 167.694 14.682 167.044 15.1363C166.394 15.5907 165.618 15.8309 164.826 15.8226H153.067C152.198 15.8221 151.368 16.1915 150.787 16.8379C150.205 17.4843 149.925 18.3474 150.017 19.2119C150.109 20.0769 150.563 20.8618 151.268 21.3723L160.796 28.2905C161.482 28.7748 161.988 29.4723 162.236 30.2749C162.483 31.077 162.458 31.9386 162.165 32.725L158.515 43.8249C158.252 44.6496 158.349 45.5475 158.784 46.2966C159.218 47.0457 159.949 47.5757 160.796 47.7569C161.642 47.9377 162.527 47.752 163.229 47.2455L172.757 40.3273C173.406 39.8577 174.186 39.6048 174.987 39.6048C175.788 39.6048 176.569 39.8577 177.217 40.3273L186.746 47.2455H186.745C187.448 47.752 188.332 47.9377 189.179 47.7569C190.026 47.5756 190.757 47.0456 191.191 46.2966C191.625 45.5475 191.723 44.6495 191.459 43.8249L187.81 32.725C187.559 31.9617 187.556 31.1389 187.802 30.3741C188.048 29.6088 188.529 28.9417 189.178 28.4678L198.707 21.5496C199.251 21.1704 199.656 20.6227 199.858 19.99C200.059 19.3578 200.047 18.6771 199.822 18.0522L199.822 18.0521Z" fill="#FFC209"/>
<path d="M274.822 18.0521C274.626 17.4357 274.237 16.8978 273.713 16.5191C273.188 16.1404 272.555 15.9405 271.908 15.9493H260.149C259.357 15.9572 258.581 15.7175 257.931 15.2631C257.281 14.8087 256.79 14.1623 256.526 13.4147L252.902 2.11253C252.632 1.28829 252.026 0.616371 251.233 0.264148C250.44 -0.0880494 249.535 -0.0880494 248.742 0.264148C247.95 0.616346 247.343 1.28831 247.073 2.11253L243.449 13.2885C243.185 14.0356 242.694 14.682 242.044 15.1363C241.394 15.5907 240.618 15.8309 239.826 15.8226H228.067C227.198 15.8221 226.368 16.1915 225.787 16.8379C225.205 17.4843 224.925 18.3474 225.017 19.2119C225.109 20.0769 225.563 20.8618 226.268 21.3723L235.796 28.2905C236.482 28.7748 236.988 29.4723 237.236 30.2749C237.483 31.077 237.458 31.9386 237.165 32.725L233.515 43.8249C233.252 44.6496 233.349 45.5475 233.784 46.2966C234.218 47.0457 234.949 47.5757 235.796 47.7569C236.642 47.9377 237.527 47.752 238.229 47.2455L247.757 40.3273C248.406 39.8577 249.186 39.6048 249.987 39.6048C250.788 39.6048 251.569 39.8577 252.217 40.3273L261.746 47.2455H261.745C262.448 47.752 263.332 47.9377 264.179 47.7569C265.026 47.5756 265.757 47.0456 266.191 46.2966C266.625 45.5475 266.723 44.6495 266.459 43.8249L262.81 32.725C262.559 31.9617 262.556 31.1389 262.802 30.3741C263.048 29.6088 263.529 28.9417 264.178 28.4678L273.707 21.5496C274.251 21.1704 274.656 20.6227 274.858 19.99C275.059 19.3578 275.047 18.6771 274.822 18.0522L274.822 18.0521Z" fill="#FFC209"/>
<path d="M349.822 18.0521C349.626 17.4357 349.237 16.8978 348.713 16.5191C348.188 16.1404 347.555 15.9405 346.908 15.9493H335.149C334.357 15.9572 333.581 15.7175 332.931 15.2631C332.281 14.8087 331.79 14.1623 331.526 13.4147L327.902 2.11253C327.632 1.28829 327.026 0.616371 326.233 0.264148C325.44 -0.0880494 324.535 -0.0880494 323.742 0.264148C322.95 0.616346 322.343 1.28831 322.073 2.11253L318.449 13.2885C318.185 14.0356 317.694 14.682 317.044 15.1363C316.394 15.5907 315.618 15.8309 314.826 15.8226H303.067C302.198 15.8221 301.368 16.1915 300.787 16.8379C300.205 17.4843 299.925 18.3474 300.017 19.2119C300.109 20.0769 300.563 20.8618 301.268 21.3723L310.796 28.2905C311.482 28.7748 311.988 29.4723 312.236 30.2749C312.483 31.077 312.458 31.9386 312.165 32.725L308.515 43.8249C308.252 44.6496 308.349 45.5475 308.784 46.2966C309.218 47.0457 309.949 47.5757 310.796 47.7569C311.642 47.9377 312.527 47.752 313.229 47.2455L322.757 40.3273C323.406 39.8577 324.186 39.6048 324.987 39.6048C325.788 39.6048 326.569 39.8577 327.217 40.3273L336.746 47.2455H336.745C337.448 47.752 338.332 47.9377 339.179 47.7569C340.026 47.5756 340.757 47.0456 341.191 46.2966C341.625 45.5475 341.723 44.6495 341.459 43.8249L337.81 32.725C337.559 31.9617 337.556 31.1389 337.802 30.3741C338.048 29.6088 338.529 28.9417 339.178 28.4678L348.707 21.5496C349.251 21.1704 349.656 20.6227 349.858 19.99C350.059 19.3578 350.047 18.6771 349.822 18.0522L349.822 18.0521Z" fill="#FFC209"/>
</svg>
