<svg version="1.2" xmlns="http://www.w3.org/2000/svg" viewBox="0 0 512 408" width="94" height="75">
	<title>bootstrap</title>
	<defs>
		<linearGradient id="g1" x2="1" gradientUnits="userSpaceOnUse" gradientTransform="matrix(447.401,355.147,-356.316,448.874,76.079,10.798)">
			<stop offset="0" stop-color="#9013fe"/>
			<stop offset="1" stop-color="#6610f2"/>
		</linearGradient>
		<filter x="-50%" y="-50%" width="200%" height="200%" id="f1" ><feDropShadow dx="-2.4492935982947064e-16" dy="4" stdDeviation="7.916666666666667" flood-color="#000000" flood-opacity=".1"/></filter>
		<linearGradient id="g2" x2="1" gradientUnits="userSpaceOnUse" gradientTransform="matrix(100.006,169.132,-152.72,90.302,193.508,109.74)">
			<stop offset="0" stop-color="#ffffff"/>
			<stop offset="1" stop-color="#f1e5fc"/>
		</linearGradient>
	</defs>
	<style>
		.s0 { fill: url(#g1) } 
		.s1 { filter: url(#f1);fill: url(#g2);stroke: #ffffff } 
	</style>
	<path class="s0" d="m56.5 53.3c-1-27.7 20.6-53.3 49.8-53.3h299.4c29.2 0 50.8 25.6 49.9 53.3-1 26.7 0.2 61.2 8.9 89.3 8.7 28.3 23.4 46.1 47.5 48.4v26c-24.1 2.3-38.8 20.1-47.5 48.4-8.7 28.1-9.9 62.6-8.9 89.3 0.9 27.7-20.7 53.3-49.9 53.3h-299.4c-29.2 0-50.8-25.6-49.8-53.3 0.9-26.7-0.3-61.2-9-89.3-8.7-28.3-23.4-46.1-47.5-48.4v-26c24.1-2.3 38.8-20.1 47.5-48.4 8.7-28.1 9.9-62.6 9-89.3z"/>
	<path class="s1" d="m267.1 312.5c47.3 0 75.8-23.2 75.8-61.4 0-28.9-20.3-49.8-50.5-53.1v-1.2c22.2-3.6 39.6-24.2 39.6-47.2 0-32.8-25.9-54.1-65.4-54.1h-88.7v217zm-54.7-189.5h45.9c25 0 39.2 11.1 39.2 31.3 0 21.5-16.5 33.5-46.4 33.5h-38.7zm0 162v-71.5h45.6c32.7 0 49.6 12.1 49.6 35.5 0 23.5-16.5 36-47.6 36z"/>
</svg>