<svg version="1.2" xmlns="http://www.w3.org/2000/svg" viewBox="0 0 2431 2576" width="71" height="75">
	<title>laravel</title>
	<style>
		.s0 { fill: #ff2d20 } 
	</style>
	<path class="s0" d="m2412.3 610.7q0.4 1.3 0.6 2.5 0.3 1.3 0.5 2.6 0.1 1.3 0.2 2.5 0.1 1.3 0.1 2.6v533.4c0 3.4-0.4 6.8-1.3 10-0.9 3.3-2.2 6.5-3.9 9.4-1.7 3-3.8 5.7-6.2 8.1-2.5 2.4-5.2 4.5-8.1 6.2l-447.7 257.7v510.9c0 13.9-7.4 26.7-19.4 33.7l-934.5 537.9c-2.1 1.2-4.4 2-6.8 2.8-0.9 0.3-1.7 0.9-2.6 1.1q-2.4 0.7-4.9 1-2.5 0.3-5.1 0.3-2.5 0-5-0.3-2.5-0.3-4.9-1c-1.1-0.3-2.1-0.9-3.1-1.2-2.1-0.8-4.4-1.5-6.4-2.7l-934.3-537.9c-2.9-1.7-5.6-3.8-8-6.2-2.5-2.4-4.5-5.1-6.3-8-1.7-3-3-6.2-3.9-9.4-0.8-3.3-1.3-6.7-1.3-10.1v-1600.1c0-3.5 0.5-6.9 1.4-10.2 0.3-1.1 0.9-2.1 1.3-3.3 0.8-2 1.4-4.1 2.5-6 0.7-1.2 1.8-2.3 2.7-3.4 1.1-1.6 2.1-3.2 3.4-4.6 1.1-1.1 2.6-1.9 3.9-2.9 1.4-1.1 2.6-2.4 4.2-3.3h0.1l467.1-269c3-1.7 6.1-3 9.4-3.9 3.3-0.8 6.7-1.3 10.1-1.3 3.4 0 6.8 0.5 10 1.3 3.3 0.9 6.5 2.2 9.4 3.9l467.2 269h0.1c1.5 0.9 2.8 2.2 4.2 3.3 1.3 1 2.7 1.8 3.8 2.9 1.4 1.4 2.4 3 3.5 4.6 0.9 1.1 2 2.2 2.7 3.4 1.1 2 1.7 4 2.5 6 0.4 1.2 1.1 2.2 1.4 3.3q0.3 1.3 0.5 2.6 0.3 1.2 0.5 2.5 0.1 1.3 0.2 2.5 0.1 1.3 0.1 2.6v999.4l389.3-224.2v-510.8c0-3.5 0.5-6.9 1.3-10.2 0.4-1.1 1-2.1 1.4-3.3 0.8-2 1.5-4.1 2.5-6 0.8-1.3 1.8-2.3 2.7-3.4 1.1-1.6 2.1-3.2 3.5-4.6 1.1-1.1 2.5-1.9 3.8-2.9 1.4-1.1 2.7-2.4 4.2-3.3h0.1l467.2-269c2.9-1.7 6.1-3 9.4-3.9 3.2-0.9 6.6-1.3 10-1.3 3.4 0 6.8 0.4 10.1 1.3 3.3 0.9 6.4 2.2 9.4 3.9l467.1 269c1.7 0.9 2.9 2.2 4.4 3.3 1.2 0.9 2.6 1.8 3.7 2.9 1.4 1.4 2.4 3 3.5 4.6 0.9 1.1 2 2.1 2.7 3.4 1.1 1.9 1.7 4 2.5 6 0.4 1.2 1 2.2 1.3 3.3zm-76.5 521v-443.5l-163.5 94.1-225.8 130.1v443.5c0 0 389.4-224.2 389.3-224.2zm-467.1 802.4v-443.9l-222.2 126.9-634.3 362.1v448zm-1790.8-1510.3v1510.3l856.4 493v-447.9l-447.4-253.2-0.2-0.1-0.2-0.1c-1.5-0.9-2.7-2.1-4.2-3.2-1.2-1-2.6-1.7-3.6-2.8l-0.1-0.2c-1.3-1.2-2.2-2.7-3.3-4-0.9-1.4-2.1-2.5-2.9-3.8v-0.2c-0.9-1.4-1.4-3.2-2.1-4.8-0.6-1.5-1.4-2.9-1.8-4.4v-0.1c-0.5-1.8-0.6-3.8-0.8-5.6-0.2-1.5-0.6-3-0.6-4.4v-1044.3l-225.8-130.1c0 0-163.4-94-163.4-94.1zm428.2-291.3l-389.2 224 389.1 224.1 389.2-224.1c0 0-389.2-224-389.1-224zm202.4 1398.2l225.8-130v-976.9l-163.5 94.1-225.8 130.1v976.9zm1199.1-1133.9l-389.2 224.1 389.2 224 389.1-224.1zm-38.9 515.5l-225.9-130-163.5-94.1v443.5l225.8 130 163.6 94.1zm-895.5 999.5l570.8-325.9 285.3-162.8-388.8-223.9-447.8 257.8-408.1 234.9z"/>
</svg>