<svg version="1.2" xmlns="http://www.w3.org/2000/svg" viewBox="0 0 2200 2504" width="66" height="75">
	<title>react</title>
	<style>
		.s0 { fill: #61dafb } 
	</style>
	<g>
		<path class="s0" d="m2197.1 1254.4c0-145.3-182-283.1-461-368.5 64.4-284.4 35.7-510.7-90.4-583.1-29-17-63-25.1-100.2-25.1v99.7c20.6 0 37.2 4.1 51 11.7 60.9 34.9 87.2 167.7 66.7 338.5-5 42-13 86.3-22.8 131.5-87.7-21.5-183.4-38-284-48.8-60.4-82.7-123-157.8-186.1-223.6 145.8-135.5 282.7-209.7 375.7-209.7v-99.7c-123 0-284 87.6-446.8 239.7-162.7-151.2-323.7-237.9-446.7-237.9v99.7c92.5 0 229.8 73.8 375.6 208.4-62.6 65.7-125.2 140.4-184.7 223.1-101 10.8-196.7 27.3-284.4 49.2-10.3-44.7-17.9-88.1-23.2-129.7-21.1-170.8 4.9-303.6 65.2-338.9 13.5-8.1 30.9-11.7 51.5-11.7v-99.7c-37.6 0-71.6 8.1-101.1 25-125.7 72.5-153.8 298.3-89 581.9-278.2 85.8-459.3 223.1-459.3 368 0 145.4 182 283.1 461.1 368.5-64.4 284.4-35.8 510.7 90.3 583.2 29.1 17 63.1 25 100.7 25 122.9 0 283.9-87.6 446.7-239.7 162.8 151.2 323.8 237.9 446.8 237.9 37.5 0 71.5-8 101-25 125.7-72.5 153.9-298.3 89-581.8 277.3-85.4 458.4-223.2 458.4-368.1zm-582.2-298.3c-16.6 57.7-37.2 117.2-60.4 176.7-18.3-35.8-37.6-71.6-58.6-107.4-20.6-35.7-42.5-70.6-64.4-104.6 63.5 9.4 124.8 21 183.4 35.3zm-204.9 476.3c-34.8 60.4-70.6 117.6-107.7 170.8-66.7 5.9-134.2 9-202.2 9-67.5 0-135-3.1-201.2-8.5-37.1-53.2-73.4-110-108.2-170-34-58.5-64.9-118-93.1-177.9 27.8-60 59.1-119.9 92.6-178.5 34.9-60.4 70.7-117.6 107.8-170.8 66.6-5.8 134.2-9 202.1-9 67.6 0 135.1 3.2 201.3 8.5 37.1 53.3 73.3 110.1 108.2 170 34 58.6 64.8 118 93 178-28.2 59.9-59 119.8-92.6 178.4zm144.5-58.1c24.1 59.9 44.7 119.8 61.7 178-58.6 14.3-120.3 26.3-184.2 35.7 21.9-34.4 43.8-69.7 64.4-106 20.5-35.7 39.8-72 58.1-107.7zm-453.5 477.1c-41.6-42.9-83.2-90.7-124.3-143.1 40.2 1.8 81.4 3.2 123 3.2 42 0 83.6-0.9 124.3-3.2-40.2 52.4-81.8 100.2-123 143.1zm-332.7-263.4c-63.5-9.4-124.8-21-183.4-35.3 16.6-57.7 37.2-117.2 60.4-176.6 18.4 35.7 37.6 71.5 58.6 107.3q31.5 53.7 64.4 104.6zm330.5-930.6c41.6 42.9 83.2 90.8 124.3 143.1-40.2-1.8-81.4-3.1-123-3.1-42 0-83.6 0.9-124.3 3.1 40.3-52.3 81.8-100.2 123-143.1zm-330.9 263.4c-22 34.4-43.9 69.8-64.4 106-20.6 35.8-39.8 71.5-58.2 107.3-24.1-59.9-44.7-119.8-61.7-178 58.6-13.8 120.3-25.9 184.3-35.3zm-404.8 559.9c-158.3-67.5-260.7-156.1-260.7-226.3 0-70.2 102.4-159.2 260.7-226.3 38.5-16.5 80.5-31.3 123.9-45.1 25.5 87.6 59 178.8 100.6 272.3-41.1 93-74.2 183.8-99.2 271-44.3-13.8-86.4-29-125.3-45.6zm240.6 639.1c-60.8-34.9-87.2-167.7-66.6-338.6 4.9-42 13-86.3 22.8-131.5 87.7 21.5 183.4 38.1 284 48.8 60.4 82.7 123 157.9 186 223.6-145.8 135.5-282.6 209.7-375.6 209.7-20.2-0.4-37.2-4.4-50.6-12zm1060.8-340.8c21 170.8-4.9 303.6-65.3 339-13.4 8-30.8 11.6-51.4 11.6-92.6 0-229.9-73.8-375.7-208.4 62.6-65.7 125.2-140.4 184.7-223.2 101.1-10.7 196.8-27.2 284.5-49.1 10.2 45.1 18.3 88.5 23.2 130.1zm172.2-298.3c-38.5 16.6-80.5 31.3-123.9 45.2-25.5-87.7-59-178.9-100.6-272.4 41.1-93 74.2-183.8 99.3-271 44.2 13.9 86.3 29.1 125.6 45.6 158.3 67.6 260.8 156.1 260.8 226.3-0.5 70.2-102.9 159.2-261.2 226.3z"/>
		<path fill-rule="evenodd" class="s0" d="m1099.7 1458.8c-113 0-204.4-91.4-204.4-204.4 0-113 91.4-204.4 204.4-204.4 113 0 204.4 91.4 204.4 204.4 0 113-91.4 204.4-204.4 204.4z"/>
	</g>
</svg>