<svg version="1.2" xmlns="http://www.w3.org/2000/svg" viewBox="0 0 25 29" width="65" height="75">
	<title>shopify</title>
	<style>
		.s0 { fill: #8db849 } 
		.s1 { fill: #5a863e } 
		.s2 { fill: #fffffe } 
		.s3 { fill: #1a1919 } 
	</style>
	<g>
		<path class="s0" d="m21.5 5.4c0-0.1-0.1-0.2-0.2-0.2-0.2 0-2.3-0.2-2.3-0.2 0 0-1.5-1.5-1.7-1.6-0.2-0.2-0.5-0.1-0.6-0.1 0 0-0.3 0.1-0.8 0.3-0.5-1.4-1.4-2.7-2.9-2.7h-0.1c-0.4-0.6-1-0.8-1.5-0.8-3.6-0.1-5.3 4.4-5.9 6.7-0.8 0.2-1.6 0.5-2.5 0.8-0.8 0.2-0.8 0.3-0.9 1-0.1 0.5-2.1 16.3-2.1 16.3l15.9 3 8.6-1.9c0 0-3-20.4-3-20.6zm-9.1-3.4c0.2 0.6 0.4 1.3 0.4 2.4 0 0.1 0 0.1 0 0.2l-2.9 0.8c0.6-2.1 1.6-3 2.5-3.4zm2.6 1.8l-1.3 0.4q0-0.2 0-0.3c0-0.9-0.1-1.6-0.3-2.2 0.7 0.2 1.3 1.1 1.6 2.1zm-3.7-2.8c0.2 0 0.3 0.1 0.5 0.2-1.2 0.5-2.4 1.8-3 4.6l-2.2 0.6c0.7-2 2.1-5.4 4.7-5.4z"/>
		<path class="s1" d="m21.2 5.2c-0.1 0-2.2-0.2-2.2-0.2 0 0-1.5-1.5-1.7-1.6-0.1-0.1-0.1-0.1-0.2-0.1l-1.2 24.6 8.6-1.9c0 0-3-20.4-3-20.6 0-0.1-0.2-0.2-0.3-0.2z"/>
		<path class="s2" d="m13 10l-1.1 3.2c0 0-0.9-0.5-2.1-0.5-1.7 0-1.8 1-1.8 1.3 0 1.4 3.8 2 3.8 5.4 0 2.7-1.7 4.4-4 4.4-2.7 0-4.1-1.7-4.1-1.7l0.7-2.4c0 0 1.4 1.2 2.6 1.2 0.8 0 1.1-0.6 1.1-1.1 0-1.9-3.1-2-3.1-5.1 0-2.6 1.9-5.1 5.6-5.1 1.7-0.1 2.4 0.4 2.4 0.4z"/>
		<path class="s3" d="m34.6 15.9c-0.9-0.5-1.3-0.9-1.3-1.4 0-0.7 0.6-1.1 1.6-1.1 1.1 0 2.1 0.5 2.1 0.5l0.8-2.4c0 0-0.7-0.6-2.8-0.6-3 0-5 1.7-5 4.1 0 1.4 1 2.4 2.2 3.1 1 0.6 1.4 1 1.4 1.6 0 0.6-0.5 1.2-1.5 1.2-1.4 0-2.8-0.7-2.8-0.7l-0.8 2.4c0 0 1.2 0.8 3.3 0.8 3 0 5.2-1.5 5.2-4.2 0-1.5-1.1-2.6-2.4-3.3zm12.1-5.1c-1.5 0-2.7 0.7-3.6 1.8l1.3-6.8h-3.4l-3.3 17.3h3.4l1.1-5.9c0.4-2.2 1.6-3.6 2.7-3.6 0.8 0 1.1 0.5 1.1 1.3 0 0.5 0 1-0.1 1.5l-1.3 6.8h3.4l1.3-7c0.1-0.7 0.2-1.6 0.2-2.2 0-2-1-3.2-2.8-3.2zm10.4 0c-4.1 0-6.8 3.7-6.8 7.8 0 2.6 1.6 4.7 4.7 4.7 4 0 6.7-3.6 6.7-7.8 0-2.4-1.4-4.7-4.6-4.7zm-1.7 9.9c-1.2 0-1.6-1-1.6-2.2 0-1.9 1-5.1 2.8-5.1 1.2 0 1.6 1 1.6 2 0 2.2-1 5.3-2.8 5.3zm15-9.9c-2.3 0-3.6 2-3.6 2l0.2-1.8h-3c-0.1 1.2-0.4 3.1-0.7 4.5l-2.4 12.4h3.4l0.9-5h0.1c0 0 0.7 0.4 2 0.4 4 0 6.6-4.1 6.6-8.2 0-2.2-1-4.3-3.5-4.3zm-3.3 10c-0.9 0-1.4-0.5-1.4-0.5l0.6-3.2c0.4-2.1 1.5-3.5 2.7-3.5 1 0 1.4 1 1.4 1.9-0.1 2.2-1.4 5.3-3.3 5.3zm11.6-14.8c-1.1 0-1.9 0.9-1.9 2 0 1 0.6 1.7 1.6 1.7 1.1 0 2-0.7 2-2 0-1-0.7-1.7-1.7-1.7zm-4.7 17.1h3.4l2.3-12h-3.4zm14.3-12h-2.4l0.1-0.6c0.2-1.2 0.9-2.2 2-2.2 0.6 0 1.1 0.2 1.1 0.2l0.7-2.7c0 0-0.6-0.3-1.8-0.3-1.2 0-2.4 0.3-3.3 1.1-1.2 1-1.7 2.4-2 3.8l-0.1 0.6h-1.6l-0.5 2.6h1.6l-1.8 9.5h3.4l1.8-9.5h2.3zm8.1 0c0 0-2.1 5.3-3.1 8.2-0.1-0.9-0.8-8.2-0.8-8.2h-3.6l2 11c0 0.2 0 0.4-0.1 0.6-0.4 0.8-1.1 1.5-1.8 2-0.6 0.5-1.4 0.8-1.9 1l0.9 2.9c0.7-0.1 2.1-0.7 3.3-1.8 1.5-1.4 3-3.7 4.4-6.7l4.1-8.9z"/>
	</g>
</svg>