<svg version="1.2" xmlns="http://www.w3.org/2000/svg" viewBox="0 0 184 48" width="150" height="39">
	<title>Woo_logo_color</title>
	<style>
		.s0 { fill: #873eff } 
	</style>
	<g>
		<path fill-rule="evenodd" class="s0" d="m77.4 0c-4.3 0-7.1 1.4-9.6 6.1l-11.4 21.5v-19.1c0-5.7-2.7-8.5-7.7-8.5-5 0-7.1 1.7-9.6 6.5l-10.8 21.1v-18.9c0-6.1-2.5-8.7-8.6-8.7h-12.4c-4.7 0-7.3 2.2-7.3 6.2 0 4 2.5 6.4 7.1 6.4h5.1v24.1c0 6.8 4.6 10.8 11.2 10.8 6.6 0 9.6-2.6 12.9-8.7l7.2-13.5v11.4c0 6.7 4.4 10.8 11.1 10.8 6.7 0 9.2-2.3 13-8.7l16.6-28c3.6-6.1 1.1-10.8-6.9-10.8 0 0 0 0 0.1 0z"/>
		<path fill-rule="evenodd" class="s0" d="m132.5 23.8c-0.1 13.6-10.4 23.7-23.9 23.7-13.5 0-23.9-10-23.9-23.7 0-13.7 10.3-23.8 23.9-23.8 13.5 0 23.9 10.1 23.9 23.8zm-15.3 0c0-5.3-3.5-9.2-8.6-9.2-5.1 0-8.6 3.9-8.6 9.2 0 5.3 3.5 9.1 8.6 9.1 5.2 0 8.6-3.8 8.6-9.1z"/>
		<path fill-rule="evenodd" class="s0" d="m183.6 23.8c0 13.6-10.4 23.7-23.9 23.7-13.5 0-23.9-10-23.9-23.7 0-13.7 10.4-23.8 23.9-23.8 13.5 0 23.9 10.2 23.9 23.8zm-15.3 0c0-5.3-3.5-9.2-8.6-9.2-5.1 0-8.5 3.9-8.5 9.2 0 5.3 3.3 9.1 8.5 9.1 5.2 0 8.6-3.8 8.6-9.1z"/>
	</g>
</svg>