<svg version="1.2" xmlns="http://www.w3.org/2000/svg" viewBox="0 0 123 123" width="75" height="75">
	<title>wordpress</title>
	<style>
		.s0 { fill: #464342 } 
	</style>
	<g>
		<path class="s0" d="m8.7 61.3c0 20.8 12.1 38.7 29.6 47.3l-25-68.7c-3 6.5-4.6 13.7-4.6 21.4z"/>
		<path class="s0" d="m96.7 58.6c0-6.5-2.3-11-4.3-14.5-2.7-4.3-5.2-8-5.2-12.3 0-4.8 3.7-9.3 8.9-9.3q0.3 0 0.7 0c-9.4-8.6-21.9-13.8-35.5-13.8-18.4 0-34.6 9.4-43.9 23.7 1.2 0 2.3 0.1 3.3 0.1 5.5 0 14-0.7 14-0.7 2.9-0.2 3.2 4 0.4 4.3 0 0-2.9 0.4-6 0.5l19.1 56.9 11.5-34.4-8.2-22.5c-2.8-0.1-5.5-0.5-5.5-0.5-2.8-0.1-2.5-4.5 0.3-4.3 0 0 8.7 0.7 13.9 0.7 5.5 0 14-0.7 14-0.7 2.8-0.2 3.2 4 0.3 4.3 0 0-2.8 0.4-6 0.5l19 56.5 5.2-17.5c2.3-7.3 4-12.5 4-17z"/>
		<path class="s0" d="m62.2 65.9l-15.8 45.8c4.7 1.4 9.7 2.1 14.9 2.1 6.1 0 12-1 17.4-3q-0.2-0.3-0.4-0.7z"/>
		<path class="s0" d="m107.4 36q0.3 2.6 0.3 5.5c0 5.3-1 11.3-4 18.8l-16 46.4c15.6-9.1 26.1-26.1 26.1-45.4 0-9.2-2.3-17.8-6.4-25.3z"/>
		<path class="s0" d="m61.3 0c-33.8 0-61.3 27.5-61.3 61.3 0 33.7 27.5 61.2 61.3 61.2 33.7 0 61.2-27.5 61.2-61.2 0-33.8-27.5-61.3-61.2-61.3zm0 119.7c-32.3 0-58.5-26.2-58.5-58.4 0-32.3 26.2-58.5 58.5-58.5 32.2 0 58.4 26.2 58.4 58.5 0 32.2-26.2 58.4-58.4 58.4z"/>
	</g>
</svg>