<svg width="50" height="35" viewBox="0 0 50 35" fill="none" xmlns="http://www.w3.org/2000/svg">
<g clip-path="url(#clip0_32_518)">
<path fill-rule="evenodd" clip-rule="evenodd" d="M49.8006 16.3789C49.4425 16.0209 44.869 10.2591 44.0959 9.307C43.2658 8.35485 42.9077 8.53389 42.3706 8.59492C41.8376 8.65596 36.0718 9.66507 35.4167 9.72204C34.7616 9.84004 34.3465 10.0801 34.7616 10.6742C35.1196 11.2072 38.9201 16.558 39.7542 17.8072L24.6012 21.4327L12.5977 1.28291C12.1216 0.570835 12.0036 0.330764 10.9334 0.391799C9.86328 0.452834 1.48519 1.16491 0.891113 1.16491C0.292969 1.22595 -0.358073 1.46195 0.236003 2.89017C0.830078 4.31432 10.3394 24.757 10.5754 25.3511C10.8114 25.9452 11.5275 26.8973 13.1307 26.5393C14.7949 26.1242 20.4997 24.639 23.6491 23.8049C25.3133 26.7753 28.6418 32.8381 29.2969 33.7292C30.127 34.9174 30.7251 34.6814 31.9702 34.3233C32.9793 34.0262 47.5423 28.7976 48.1934 28.5005C48.8485 28.2035 49.2635 28.0245 48.7874 27.3693C48.4294 26.8933 44.6289 21.7216 42.6066 19.0482C43.9738 18.6901 48.9054 17.384 49.4425 17.205C50.0366 17.0341 50.1546 16.737 49.8006 16.3789ZM22.2819 22.0267C22.1029 22.0878 13.6068 24.106 13.1877 24.224C12.7116 24.342 12.7116 24.285 12.7116 24.106C12.5977 23.927 2.6123 3.24418 2.43327 3.00817C2.31527 2.77217 2.31527 2.5321 2.43327 2.5321C2.55127 2.5321 10.4574 1.82002 10.6934 1.82002C10.9904 1.82002 10.9294 1.88106 11.0514 2.05602C11.0514 2.05602 22.1639 21.2536 22.3429 21.5507C22.5789 21.8477 22.4609 21.9657 22.2819 22.0267ZM46.1751 26.4823C46.2931 26.7183 46.4722 26.8404 45.9961 26.9584C45.5811 27.1374 31.6732 31.833 31.3761 31.951C31.0791 32.069 30.9001 32.1301 30.5461 31.593C30.188 31.0599 25.6714 23.2718 25.6714 23.2718L40.4704 19.4104C40.8284 19.2924 40.9464 19.2313 41.1825 19.5894C41.4185 20.0044 46.0571 26.3033 46.1751 26.4823ZM47.1232 16.0209C46.7651 16.0819 41.3574 17.4491 41.3574 17.4491L36.9019 11.3863C36.7839 11.2072 36.6659 11.0282 36.9629 10.9712C37.2599 10.9102 42.3136 10.0191 42.5496 9.96211C42.7856 9.90108 42.9647 9.84411 43.2617 10.2591C43.5588 10.6172 47.3633 15.4878 47.5423 15.6669C47.7173 15.8459 47.4813 15.9639 47.1232 16.0209Z" fill="#FB503B"/>
</g>
<defs>
<clipPath id="clip0_32_518">
<rect width="50" height="34.2326" fill="white" transform="translate(0 0.383667)"/>
</clipPath>
</defs>
</svg>
