<svg width="50" height="41" viewBox="0 0 50 41" fill="none" xmlns="http://www.w3.org/2000/svg">
<g clip-path="url(#clip0_32_555)">
<path d="M9.06186 33.7499L10.8788 40.777H9.50721L8.29703 35.7152L6.01543 40.777H4.85688L2.58173 35.7443L1.3425 40.777H0L1.80076 33.7499H2.98835L5.44099 39.1909L7.88395 33.7499H9.06186Z" fill="#003545"/>
<path d="M16.06 36.4656V35.6475H17.3847V40.7771H16.06V39.9509C15.7098 40.5447 14.9902 40.8852 14.114 40.8852C12.2826 40.8852 11.2612 39.5943 11.2612 38.1098C11.2612 36.6786 12.2293 35.5281 13.9187 35.5281C14.882 35.5394 15.6808 35.8621 16.06 36.4656ZM12.6714 38.1856C12.6714 39.1296 13.2652 39.938 14.4141 39.938C15.5226 39.938 16.1261 39.1489 16.1261 38.2147C16.1261 37.2804 15.5033 36.4817 14.3512 36.4817C13.2475 36.4817 12.6731 37.2788 12.6731 38.1856H12.6714Z" fill="#003545"/>
<path d="M20.3714 40.7769H19.0483V35.6474H20.3714V36.7962C20.5231 36.4289 20.7791 36.1141 21.1077 35.8907C21.4364 35.6673 21.8233 35.5451 22.2206 35.5393C22.5023 35.5357 22.7825 35.5815 23.0484 35.6748L22.766 36.6429C22.5372 36.5833 22.3021 36.5508 22.0657 36.5461C21.1105 36.5461 20.3714 37.2658 20.3714 38.3211V40.7769Z" fill="#003545"/>
<path d="M23.71 34.2936C23.7076 34.2052 23.7227 34.1173 23.7543 34.0347C23.786 33.9522 23.8336 33.8767 23.8944 33.8125C23.9553 33.7484 24.0281 33.6969 24.1089 33.6609C24.1896 33.625 24.2767 33.6053 24.3651 33.603H24.4215C24.6068 33.5973 24.7867 33.6653 24.9219 33.792C25.057 33.9188 25.1365 34.0939 25.1428 34.2791V34.313C25.1463 34.4907 25.0791 34.6626 24.9559 34.7909C24.8328 34.9191 24.6638 34.9933 24.4861 34.9971H24.4215C24.242 35.005 24.0666 34.9416 23.9336 34.8207C23.8006 34.6998 23.7208 34.5312 23.7116 34.3517L23.71 34.2936ZM23.768 35.6474H25.0928V39.3957C25.0928 39.6281 25.1412 39.7943 25.3348 39.7943C25.42 39.7927 25.5048 39.783 25.5882 39.7652L25.7931 40.7334C25.5146 40.8448 25.2168 40.8997 24.9169 40.8948C24.3618 40.8948 23.768 40.7334 23.768 39.4732V35.6474Z" fill="#003545"/>
<path d="M31.0098 36.4656V35.6475H32.3394V40.7771H31.0146V39.9509C30.6645 40.5447 29.9448 40.8852 29.0686 40.8852C27.2388 40.8852 26.2158 39.5943 26.2158 38.1098C26.2158 36.6786 27.184 35.5281 28.8734 35.5281C29.8319 35.5394 30.6306 35.8621 31.0098 36.4656ZM27.6212 38.1792C27.6212 39.1231 28.215 39.9315 29.3639 39.9315C30.4741 39.9315 31.0775 39.1425 31.0775 38.2082C31.0775 37.274 30.4531 36.4752 29.3026 36.4752C28.1973 36.4752 27.6229 37.2724 27.6229 38.1792H27.6212Z" fill="#003545"/>
<path d="M34.3693 33.7499H37.5432C40.2104 33.7499 41.5432 35.2198 41.5239 37.2626C41.5432 39.3861 40.0717 40.777 37.7771 40.777H34.3693V33.7499ZM35.2454 34.3727V40.1639H37.6658C39.7877 40.1639 40.5961 38.7326 40.5961 37.2433C40.5961 35.5603 39.5844 34.3727 37.6658 34.3727H35.2454Z" fill="#003545"/>
<path d="M46.9342 40.777H42.9002V33.7499H46.5389C47.9298 33.7499 49.2545 34.0113 49.2352 35.57C49.2352 36.6688 48.5526 36.9722 47.833 37.0884C48.8543 37.1755 49.4691 37.8274 49.4691 38.8794C49.4756 40.4559 48.0927 40.777 46.9342 40.777ZM46.6324 36.8157C48.025 36.8157 48.3364 36.28 48.3364 35.599C48.3364 34.576 47.7135 34.3437 46.6324 34.3437H43.7409V36.8157H46.6324ZM46.6712 37.4095H43.7409V40.1832H46.7938C47.6506 40.1832 48.5558 39.9008 48.5558 38.8214C48.5558 37.5757 47.5151 37.4095 46.6679 37.4095H46.6712Z" fill="#003545"/>
<path d="M49.7789 0.266406C49.651 0.158501 49.488 0.101111 49.3207 0.105048C48.864 0.105048 48.2734 0.414856 47.9556 0.589122L47.8297 0.653666C47.296 0.908967 46.7154 1.05177 46.1241 1.0732C45.5174 1.09256 44.9946 1.12806 44.3137 1.19906C40.2798 1.61375 38.4806 4.70536 36.7476 7.69533C35.8037 9.32182 34.8291 11.0112 33.493 12.3021C33.2173 12.5709 32.9235 12.8205 32.6136 13.0492C31.2308 14.077 29.4946 14.8112 28.144 15.3308C26.8435 15.8278 25.4235 16.2747 24.052 16.7072C22.795 17.1025 21.609 17.4768 20.5183 17.8819C20.0342 18.0642 19.6082 18.2046 19.2387 18.3272C18.2447 18.6499 17.5283 18.8968 16.4811 19.6181C16.0728 19.8972 15.663 20.199 15.3855 20.4249C14.5545 21.089 13.8188 21.8644 13.1991 22.7291C12.6665 23.5266 12.051 24.2654 11.3628 24.9332C11.1417 25.1494 10.7496 25.2559 10.1623 25.2559C9.47491 25.2559 8.64069 25.1139 7.75806 24.9639C6.88245 24.7856 5.99354 24.6803 5.1005 24.6492C4.44538 24.6492 3.94356 24.7557 3.56921 24.9719C3.56921 24.9719 2.9383 25.3398 2.67206 25.8158L2.93346 25.9336C3.33827 26.1543 3.71346 26.4254 4.05006 26.7404C4.40016 27.0646 4.79064 27.3423 5.21183 27.5666C5.34587 27.6164 5.46792 27.694 5.57005 27.7941C5.46032 27.9554 5.29897 28.1636 5.12954 28.3863C4.1985 29.6045 3.65473 30.3742 3.96615 30.7937C4.11523 30.8717 4.28207 30.9096 4.45022 30.9034C6.48011 30.9034 7.57089 30.3758 8.9505 29.7078C9.35067 29.5142 9.75729 29.3157 10.2414 29.1108C11.0482 28.7606 11.9163 28.2023 12.8376 27.6117C14.043 26.8259 15.3032 26.0191 16.5263 25.6303C17.5314 25.3238 18.5785 25.1768 19.6292 25.1946C20.92 25.1946 22.2787 25.3673 23.5889 25.5351C24.5651 25.6609 25.5768 25.79 26.5692 25.8578C26.9548 25.8804 27.3114 25.8917 27.6583 25.8917C28.1224 25.8933 28.5862 25.8691 29.0476 25.8191L29.159 25.7803C29.8544 25.3527 30.1804 24.4346 30.4966 23.5471C30.6999 22.9759 30.871 22.4628 31.1421 22.1369L31.1937 22.0933C31.2065 22.0865 31.2211 22.0841 31.2354 22.0864C31.2497 22.0888 31.2628 22.0957 31.2728 22.1062V22.132C31.1114 25.6028 29.714 27.807 28.3005 29.7659L27.3566 30.7631C27.3566 30.7631 28.6781 30.7631 29.4301 30.4726C32.1731 29.6529 34.2434 27.8457 35.7504 24.9639C36.1219 24.2256 36.4542 23.4684 36.746 22.6952C36.7718 22.6306 37.009 22.5112 36.9864 22.8452C36.9784 22.9437 36.9719 23.0534 36.9639 23.1679C36.9659 23.237 36.9616 23.3062 36.9509 23.3745C36.9122 23.8586 36.7977 24.8816 36.7977 24.8816L37.6448 24.4282C39.6876 23.1373 41.2624 20.533 42.4565 16.4813C42.9535 14.7935 43.3181 13.117 43.6392 11.6405C44.0233 9.86559 44.3541 8.34399 44.7332 7.75342C45.3287 6.82722 46.2371 6.20115 47.1165 5.59283C47.2359 5.51054 47.3569 5.43148 47.4747 5.34434C48.58 4.56821 49.6789 3.67267 49.9209 2.00262V1.96551C50.0968 0.721436 49.9483 0.403561 49.7789 0.266406Z" fill="#003545"/>
</g>
<defs>
<clipPath id="clip0_32_555">
<rect width="50" height="40.7897" fill="white" transform="translate(0 0.105103)"/>
</clipPath>
</defs>
</svg>
