<svg width="50" height="45" viewBox="0 0 50 45" fill="none" xmlns="http://www.w3.org/2000/svg">
<path fill-rule="evenodd" clip-rule="evenodd" d="M50 22.2697C50 18.9575 45.8537 15.8203 39.4938 13.8713C40.9627 7.38932 40.3076 2.23389 37.4349 0.581868C36.7716 0.195312 35.9985 0.012207 35.1522 0.012207V2.28678C35.6201 2.28678 35.9985 2.38037 36.3159 2.55127C37.7035 3.34473 38.3016 6.37207 37.8337 10.2661C37.7197 11.2223 37.5366 12.2314 37.3128 13.2609C35.3149 12.7726 33.134 12.3942 30.8431 12.1501C29.4678 10.2661 28.0396 8.55306 26.6032 7.05566C29.9235 3.96322 33.0404 2.27458 35.1603 2.27458V0C32.3568 0 28.6906 1.99788 24.9797 5.46468C21.2687 2.01823 17.6025 0.0406901 14.799 0.0406901V2.31527C16.9067 2.31527 20.0358 3.99577 23.3602 7.0638C21.932 8.5612 20.5078 10.262 19.1528 12.1501C16.8498 12.3942 14.6688 12.7726 12.6709 13.269C12.4349 12.2518 12.264 11.263 12.1419 10.3149C11.6618 6.4209 12.2559 3.39355 13.6312 2.58789C13.9364 2.40479 14.3351 2.32341 14.8031 2.32341V0.0528971C13.9486 0.0528971 13.1714 0.236003 12.5 0.622559C9.63542 2.27458 8.99251 7.42188 10.4736 13.8835C4.12598 15.8366 0 18.9657 0 22.2697C0 25.5819 4.14632 28.7191 10.5062 30.6681C9.03727 37.1501 9.69238 42.3055 12.5651 43.9575C13.2284 44.3441 14.0015 44.5272 14.86 44.5272C17.6636 44.5272 21.3298 42.5293 25.0407 39.0625C28.7516 42.509 32.4178 44.4865 35.2214 44.4865C36.0758 44.4865 36.853 44.3034 37.5244 43.9168C40.389 42.2648 41.0319 37.1175 39.5508 30.6559C45.874 28.7109 50 25.5697 50 22.2697ZM29.6468 22.2697C29.6468 19.6981 27.5635 17.6107 24.9878 17.6107C22.4162 17.6107 20.3288 19.694 20.3288 22.2697C20.3288 24.8454 22.4121 26.9287 24.9878 26.9287C27.5635 26.9246 29.6468 24.8413 29.6468 22.2697ZM36.731 15.4704C36.3525 16.7847 35.8846 18.1396 35.3556 19.4946C34.9365 18.6808 34.5011 17.863 34.021 17.0492C33.5531 16.2354 33.0526 15.4378 32.5521 14.6647C34.0007 14.8804 35.3963 15.1449 36.731 15.4704ZM32.0638 26.3265C31.2703 27.7018 30.4525 29.008 29.6061 30.2205C28.0884 30.3548 26.5503 30.424 25 30.424C23.4619 30.424 21.9238 30.3507 20.4142 30.2287C19.5679 29.0161 18.7419 27.7222 17.9484 26.355C17.1753 25.0203 16.4714 23.6654 15.8285 22.2982C16.4591 20.931 17.1753 19.5679 17.9362 18.2332C18.7297 16.8579 19.5475 15.5518 20.3939 14.3392C21.9116 14.2049 23.4497 14.1357 25 14.1357C26.5381 14.1357 28.0762 14.209 29.5858 14.3311C30.4321 15.5436 31.2581 16.8376 32.0516 18.2048C32.8247 19.5394 33.5286 20.8944 34.1716 22.2616C33.5286 23.6247 32.8288 24.9878 32.0638 26.3265ZM35.3556 25C35.9049 26.3672 36.3729 27.7303 36.7635 29.0568C35.4289 29.3823 34.021 29.659 32.5643 29.8706C33.0648 29.0853 33.5612 28.2796 34.0332 27.4536C34.4971 26.6398 34.9365 25.8138 35.3556 25ZM25.0203 35.8724C24.0723 34.8958 23.1242 33.8053 22.1883 32.6131C23.1038 32.6538 24.0438 32.6864 24.9919 32.6864C25.9481 32.6864 26.8962 32.666 27.8239 32.6131C26.9043 33.8053 25.9562 34.8958 25.0203 35.8724ZM17.4398 29.8706C15.9912 29.655 14.5955 29.3905 13.2609 29.0649C13.6393 27.7507 14.1073 26.3957 14.6362 25.0407C15.0553 25.8545 15.4907 26.6724 15.9709 27.4862C16.451 28.304 16.9393 29.0975 17.4398 29.8706ZM24.9674 8.66292C25.9155 9.63949 26.8636 10.73 27.7995 11.9222C26.884 11.8815 25.944 11.849 24.9959 11.849C24.0397 11.849 23.0916 11.8693 22.1639 11.9222C23.0835 10.73 24.0316 9.63949 24.9674 8.66292ZM17.4276 14.6647C16.9271 15.45 16.4307 16.2557 15.9587 17.0817C15.4907 17.8955 15.0513 18.7134 14.6322 19.5272C14.0828 18.16 13.6149 16.7969 13.2243 15.4704C14.563 15.153 15.9709 14.8804 17.4276 14.6647ZM8.20312 27.4251C4.59391 25.887 2.26237 23.8688 2.26237 22.2697C2.26237 20.6706 4.59798 18.6401 8.20312 17.1143C9.07796 16.7358 10.0382 16.4022 11.027 16.0848C11.6089 18.0827 12.3739 20.1619 13.3219 22.29C12.3861 24.41 11.6292 26.4771 11.0596 28.4668C10.0505 28.1494 9.09017 27.8036 8.20312 27.4251ZM13.6882 41.9881C12.3006 41.1947 11.7025 38.1673 12.1704 34.2733C12.2843 33.3171 12.4674 32.3079 12.6912 31.2785C14.6891 31.7668 16.8701 32.1452 19.161 32.3893C20.5363 34.2733 21.9645 35.9863 23.4009 37.4837C20.0765 40.5721 16.9596 42.2648 14.8397 42.2648C14.3799 42.2526 13.9933 42.1631 13.6882 41.9881ZM37.8621 34.2244C38.3423 38.1185 37.7482 41.1458 36.3729 41.9515C36.0677 42.1346 35.6689 42.216 35.201 42.216C33.0933 42.216 29.9642 40.5355 26.6398 37.4674C28.068 35.9701 29.4922 34.2692 30.8472 32.3812C33.1502 32.137 35.3312 31.7586 37.3291 31.2581C37.5651 32.2876 37.7482 33.2764 37.8621 34.2244ZM41.7847 27.4251C40.9098 27.8036 39.9495 28.1372 38.9608 28.4546C38.3789 26.4567 37.6139 24.3774 36.6659 22.2493C37.6017 20.1294 38.3586 18.0623 38.9282 16.0726C39.9373 16.39 40.8936 16.7358 41.7928 17.1102C45.402 18.6483 47.7336 20.6665 47.7336 22.2656C47.7254 23.8688 45.3939 25.8952 41.7847 27.4251Z" fill="#00D8FF"/>
</svg>
