<svg width="35" height="41" viewBox="0 0 35 41" fill="none" xmlns="http://www.w3.org/2000/svg">
<g clip-path="url(#clip0_32_580)">
<path fill-rule="evenodd" clip-rule="evenodd" d="M30.6557 8.30675C30.6266 8.10663 30.4523 7.9969 30.3071 7.98399C30.1618 7.97108 27.3409 7.92912 27.3409 7.92912C27.3409 7.92912 24.9783 5.63753 24.7459 5.40191C24.5136 5.16953 24.0585 5.24053 23.8809 5.29217C23.8777 5.29217 23.4388 5.43096 22.6932 5.66012C22.5705 5.25667 22.3866 4.76285 22.1251 4.2658C21.286 2.66169 20.053 1.81283 18.5651 1.8096C18.5619 1.8096 18.5619 1.8096 18.5586 1.8096C18.4554 1.8096 18.3521 1.81928 18.2488 1.82897C18.2036 1.77733 18.1617 1.72568 18.1132 1.67404C17.4645 0.98011 16.635 0.64444 15.6377 0.673489C13.7173 0.728358 11.8033 2.11622 10.2508 4.5821C9.1599 6.31532 8.32719 8.49395 8.09157 10.182C5.88713 10.8662 4.34434 11.3439 4.30883 11.3536C3.19532 11.7022 3.15981 11.7377 3.01457 12.7866C2.91452 13.5774 0 36.1092 0 36.1092L24.4167 40.3309L35 37.7004C35 37.7004 30.6815 8.50686 30.6557 8.30675ZM21.4699 6.03775C20.9083 6.21204 20.2693 6.40892 19.5753 6.62517C19.5624 5.65366 19.4462 4.29808 18.9911 3.12969C20.45 3.40403 21.1665 5.05333 21.4699 6.03775ZM18.2972 7.02216C17.0191 7.41916 15.6215 7.85165 14.2208 8.28415C14.6145 6.77687 15.3633 5.27281 16.28 4.28839C16.6221 3.92045 17.0998 3.51377 17.6646 3.28138C18.1972 4.38845 18.3101 5.96029 18.2972 7.02216ZM15.6796 1.95162C16.1315 1.94193 16.5091 2.04199 16.8351 2.25501C16.3155 2.5229 15.8152 2.91021 15.344 3.41371C14.1239 4.72412 13.1879 6.75427 12.8168 8.71665C11.6548 9.07491 10.5155 9.42995 9.46975 9.75271C10.1282 6.66713 12.7167 2.03553 15.6796 1.95162Z" fill="#95BF47"/>
<path fill-rule="evenodd" clip-rule="evenodd" d="M30.3071 7.9834C30.1618 7.97049 27.3409 7.92854 27.3409 7.92854C27.3409 7.92854 24.9783 5.63695 24.7459 5.40133C24.6588 5.31419 24.5426 5.269 24.4167 5.24963V40.3271L34.9968 37.6966C34.9968 37.6966 30.6783 8.50627 30.6524 8.30616C30.6298 8.10605 30.4523 7.99632 30.3071 7.9834Z" fill="#5E8E3E"/>
<path fill-rule="evenodd" clip-rule="evenodd" d="M18.5522 13.4251L17.3225 18.0244C17.3225 18.0244 15.9508 17.4015 14.3273 17.5015C11.9453 17.6532 11.9195 19.154 11.9421 19.5317C12.0712 21.5877 17.4806 22.0363 17.7873 26.8551C18.0261 30.6443 15.7765 33.236 12.536 33.4426C8.64672 33.6879 6.5036 31.3931 6.5036 31.3931L7.32663 27.8879C7.32663 27.8879 9.48266 29.5146 11.2062 29.4049C12.3326 29.3339 12.7361 28.4172 12.6941 27.7685C12.5263 25.0864 8.11739 25.2445 7.83982 20.8356C7.60421 17.1271 10.041 13.367 15.4182 13.0281C17.4935 12.8957 18.5522 13.4251 18.5522 13.4251Z" fill="white"/>
</g>
<defs>
<clipPath id="clip0_32_580">
<rect width="35" height="39.6607" fill="white" transform="translate(0 0.669678)"/>
</clipPath>
</defs>
</svg>
